<svg width="18" height="18" viewBox="0 0 18 18" fill="none" xmlns="http://www.w3.org/2000/svg">
<rect x="1" y="1" width="16" height="16" rx="2" stroke="#DA3D0B" stroke-width="2"/>
<path d="M7 15C8.104 15 9 14.104 9 13V11H7C5.896 11 5 11.896 5 13C5 14.104 5.896 15 7 15Z" fill="#DA3D0B"/>
<path d="M5 9C5 7.896 5.896 7 7 7H9V11H7C5.896 11 5 10.104 5 9Z" fill="#DA3D0B"/>
<path d="M5 5C5 3.896 5.896 3 7 3H9V7H7C5.896 7 5 6.104 5 5Z" fill="#DA3D0B"/>
<path d="M9 3H11C12.104 3 13 3.896 13 5C13 6.104 12.104 7 11 7H9V3Z" fill="#DA3D0B"/>
<path d="M13 9C13 10.104 12.104 11 11 11C9.896 11 9 10.104 9 9C9 7.896 9.896 7 11 7C12.104 7 13 7.896 13 9Z" fill="#DA3D0B"/>
</svg>
