<svg width="31" height="32" viewBox="0 0 31 32" fill="none" xmlns="http://www.w3.org/2000/svg">
<path d="M0 0H31V32H0V0ZM8.14611 26.7378C8.835 28.2489 10.1956 29.4933 12.5206 29.4933C15.1039 29.4933 16.8778 28.0711 16.8778 24.96V14.6844H13.95V24.8889C13.95 26.4178 13.3472 26.8089 12.4 26.8089C11.4011 26.8089 10.9878 26.0978 10.5228 25.2622L8.14611 26.7378ZM18.445 26.4178C19.3061 28.16 21.0456 29.4933 23.7667 29.4933C26.5222 29.4933 28.5889 28.0178 28.5889 25.2978C28.5889 22.7911 27.1939 21.6711 24.7139 20.5689L23.9906 20.2489C22.7333 19.6978 22.1994 19.3244 22.1994 18.4356C22.1994 17.7067 22.7333 17.1378 23.5944 17.1378C24.4211 17.1378 24.9722 17.5111 25.4717 18.4356L27.7278 16.8889C26.7806 15.1822 25.4372 14.5244 23.5944 14.5244C20.9939 14.5244 19.3233 16.2311 19.3233 18.4889C19.3233 20.9422 20.7183 22.0978 22.8194 23.0222L23.5428 23.3422C24.8861 23.9467 25.6783 24.32 25.6783 25.3511C25.6783 26.2044 24.9033 26.8267 23.6978 26.8267C22.2683 26.8267 21.4417 26.0622 20.8217 24.9956L18.445 26.4178Z" fill="#DA3D0B"/>
</svg>
