<svg width="28" height="32" viewBox="0 0 28 32" fill="none" xmlns="http://www.w3.org/2000/svg">
<path d="M14 0C13.58 0 13.1444 0.110345 12.7867 0.315271L1.21333 7.0936C0.466667 7.53498 0 8.35468 0 9.23744V22.7626C0 23.6453 0.466667 24.465 1.21333 24.9064L4.24667 26.6719C5.72444 27.397 6.22222 27.4128 6.90667 27.4128C9.08444 27.4128 10.3444 26.0729 10.3444 23.7399V10.3882C10.3444 10.199 10.1889 10.0414 10.0022 10.0414H8.55556C8.35333 10.0414 8.19778 10.199 8.19778 10.3882V23.7399C8.19778 24.7803 7.14 25.8049 5.44444 24.9379L2.25556 23.0936C2.14667 23.0148 2.08444 22.8887 2.08444 22.7626V9.23744C2.08444 9.09557 2.14667 8.96946 2.25556 8.9064L13.8289 2.14384C13.9222 2.08079 14.0778 2.08079 14.1711 2.14384L25.7444 8.9064C25.8533 8.96946 25.9156 9.09557 25.9156 9.23744V22.7626C25.9156 22.8887 25.8533 23.0148 25.7444 23.0936L14.1711 29.8562C14.0778 29.9192 13.9222 29.9192 13.8133 29.8562L10.8889 28.0591C10.7644 28.0118 10.64 27.9961 10.5622 28.0434C9.73778 28.5163 9.58222 28.6108 8.82 28.8473C8.63333 28.9103 8.33778 29.0207 8.92889 29.3517L12.7867 31.669C13.16 31.8897 13.5644 32 14 32C14.4356 32 14.84 31.8897 15.2133 31.669L26.7867 24.9064C27.5333 24.465 28 23.6453 28 22.7626V9.23744C28 8.35468 27.5333 7.53498 26.7867 7.0936L15.2133 0.315271C14.8556 0.110345 14.4356 0 14 0ZM17.1111 9.69458C13.8133 9.69458 11.8378 11.0975 11.8378 13.4621C11.8378 16 13.7978 16.7409 16.9711 17.0562C20.7511 17.4345 21.0467 18.002 21.0467 18.7586C21.0467 20.067 20.0044 20.6187 17.5778 20.6187C14.4978 20.6187 13.8444 19.8463 13.6111 18.3015C13.58 18.1438 13.44 18.0177 13.2689 18.0177H11.7756C11.5889 18.0177 11.4489 18.1596 11.4489 18.3645C11.4489 20.3192 12.5067 22.6837 17.5778 22.6837C21.2333 22.6837 23.3333 21.2177 23.3333 18.664C23.3333 16.1261 21.6533 15.464 18.0911 14.9754C14.4978 14.5025 14.14 14.2502 14.14 13.399C14.14 12.6897 14.4511 11.7438 17.1111 11.7438C19.4444 11.7438 20.3622 12.264 20.72 13.8877C20.7511 14.0453 20.8911 14.1557 21.0467 14.1557H22.5556C22.6333 14.1557 22.7267 14.1241 22.7889 14.0453C22.8511 13.9823 22.8978 13.8877 22.8667 13.7931C22.6489 10.9872 20.8133 9.69458 17.1111 9.69458Z" fill="#DA3D0B"/>
</svg>
