<svg width="18" height="18" viewBox="0 0 18 18" fill="none" xmlns="http://www.w3.org/2000/svg">
<path d="M2 0C0.9 0 0 0.9 0 2V16C0 17.1 0.9 18 2 18H16C17.1 18 18 17.1 18 16V2C18 0.9 17.1 0 16 0H2ZM2 2H16V16H2V2ZM4 5V12.9062H5.67383V10.1152H6.78906C7.99806 10.1152 9.30273 9.46452 9.30273 7.60352C9.30273 7.13952 9.02227 5 6.69727 5H4ZM5.67383 6.30273H6.78906C7.44006 6.30273 7.7207 6.95252 7.7207 7.60352C7.7207 8.25452 7.53306 8.8125 6.78906 8.8125H5.67383V6.30273ZM12.1699 6.95312C11.4259 6.95312 10.123 7.3257 10.123 8.7207C10.123 10.5807 12.8203 10.4882 12.8203 11.3262C12.8203 11.6982 12.5419 11.8848 12.1699 11.8848C11.9839 11.8848 11.4258 11.7909 11.4258 11.0469H9.9375C9.9375 11.9769 10.6829 13 12.1719 13C12.9159 13 14.3105 12.7212 14.3105 11.3262C14.3105 9.27917 11.6133 9.55991 11.6133 8.62891C11.6133 8.25691 11.8929 8.07031 12.1719 8.07031C12.5439 8.07031 12.7285 8.34945 12.7285 8.81445H14.3105C14.3105 7.79145 13.5659 6.95312 12.1699 6.95312Z" fill="#DA3D0B"/>
</svg>
