<svg width="36" height="32" viewBox="0 0 36 32" fill="none" xmlns="http://www.w3.org/2000/svg">
<path d="M18 12.8556C19.7247 12.8556 21.1312 14.2531 21.1312 16C21.1312 17.6637 19.7247 19.0779 18 19.0779C16.2753 19.0779 14.8688 17.6637 14.8688 16C14.8688 14.2531 16.2753 12.8556 18 12.8556ZM10.2474 29.3097C11.3023 29.9419 13.613 28.977 16.2753 26.4814C15.4047 25.4998 14.5507 24.435 13.747 23.3203C12.374 23.1872 11.0177 22.9876 9.72837 22.7214C8.87442 26.2818 9.19256 28.7274 10.2474 29.3097ZM11.4363 19.76L10.9507 18.9115C10.7665 19.394 10.5823 19.8765 10.4651 20.3423C10.9172 20.4421 11.4195 20.5253 11.9386 20.6085C11.7712 20.3257 11.6037 20.0428 11.4363 19.76ZM22.387 18.4956L23.7433 16L22.387 13.5044C21.8847 12.6227 21.3488 11.8407 20.8633 11.0588C19.9591 11.0089 19.0047 11.0089 18 11.0089C16.9953 11.0089 16.0409 11.0089 15.1367 11.0588C14.6512 11.8407 14.1153 12.6227 13.613 13.5044L12.2567 16L13.613 18.4956C14.1153 19.3773 14.6512 20.1593 15.1367 20.9412C16.0409 20.9911 16.9953 20.9911 18 20.9911C19.0047 20.9911 19.9591 20.9911 20.8633 20.9412C21.3488 20.1593 21.8847 19.3773 22.387 18.4956ZM18 7.31541C17.6819 7.68143 17.347 8.06408 17.0121 8.51328C17.347 8.51328 17.6651 8.51328 18 8.51328C18.3349 8.51328 18.653 8.51328 18.9879 8.51328C18.653 8.06408 18.3181 7.68143 18 7.31541ZM18 24.6846C18.3181 24.3186 18.653 23.9359 18.9879 23.4867C18.653 23.4867 18.3349 23.4867 18 23.4867C17.6651 23.4867 17.347 23.4867 17.0121 23.4867C17.347 23.9359 17.6819 24.3186 18 24.6846ZM25.7358 2.69028C24.6977 2.05807 22.387 3.02302 19.7247 5.5186C20.5953 6.50019 21.4493 7.56497 22.253 8.67965C23.626 8.81275 24.9823 9.0124 26.2716 9.27859C27.1256 5.71824 26.8074 3.27258 25.7358 2.69028ZM24.5637 12.24L25.0493 13.0885C25.2335 12.606 25.4177 12.1235 25.5349 11.6577C25.0828 11.5579 24.5805 11.4747 24.0614 11.3915C24.2288 11.6743 24.3963 11.9572 24.5637 12.24ZM26.9916 0.510815C29.453 1.90834 29.7209 5.58515 28.6828 9.87753C32.9358 11.1253 36 13.1883 36 16C36 18.8117 32.9358 20.8747 28.6828 22.1225C29.7209 26.4149 29.453 30.0917 26.9916 31.4892C24.547 32.8867 21.2149 31.2895 18 28.2449C14.7851 31.2895 11.453 32.8867 8.99163 31.4892C6.54698 30.0917 6.27907 26.4149 7.31721 22.1225C3.06419 20.8747 0 18.8117 0 16C0 13.1883 3.06419 11.1253 7.31721 9.87753C6.27907 5.58515 6.54698 1.90834 8.99163 0.510815C11.453 -0.886705 14.7851 0.710461 18 3.75506C21.2149 0.710461 24.547 -0.886705 26.9916 0.510815ZM26.506 16C27.0753 17.2478 27.5777 18.4956 27.9963 19.76C31.5126 18.7119 33.4884 17.2145 33.4884 16C33.4884 14.7855 31.5126 13.2881 27.9963 12.24C27.5777 13.5044 27.0753 14.7522 26.506 16ZM9.49395 16C8.92465 14.7522 8.42233 13.5044 8.00372 12.24C4.48744 13.2881 2.51163 14.7855 2.51163 16C2.51163 17.2145 4.48744 18.7119 8.00372 19.76C8.42233 18.4956 8.92465 17.2478 9.49395 16ZM24.5637 19.76C24.3963 20.0428 24.2288 20.3257 24.0614 20.6085C24.5805 20.5253 25.0828 20.4421 25.5349 20.3423C25.4177 19.8765 25.2335 19.394 25.0493 18.9115L24.5637 19.76ZM19.7247 26.4814C22.387 28.977 24.6977 29.9419 25.7358 29.3097C26.8074 28.7274 27.1256 26.2818 26.2716 22.7214C24.9823 22.9876 23.626 23.1872 22.253 23.3203C21.4493 24.435 20.5953 25.4998 19.7247 26.4814ZM11.4363 12.24C11.6037 11.9572 11.7712 11.6743 11.9386 11.3915C11.4195 11.4747 10.9172 11.5579 10.4651 11.6577C10.5823 12.1235 10.7665 12.606 10.9507 13.0885L11.4363 12.24ZM16.2753 5.5186C13.613 3.02302 11.3023 2.05807 10.2474 2.69028C9.19256 3.27258 8.87442 5.71824 9.72837 9.27859C11.0177 9.0124 12.374 8.81275 13.747 8.67965C14.5507 7.56497 15.4047 6.50019 16.2753 5.5186Z" fill="#DA3D0B"/>
</svg>
