<svg width="24" height="18" viewBox="0 0 24 18" fill="none" xmlns="http://www.w3.org/2000/svg">
<path d="M4 2V12H9V8C9 7.46957 9.21071 6.96086 9.58579 6.58579C9.96086 6.21071 10.4696 6 11 6H16C16.5304 6 17.0391 6.21071 17.4142 6.58579C17.7893 6.96086 18 7.46957 18 8V12H20V2H4ZM0 16V14H4C3.46957 14 2.96086 13.7893 2.58579 13.4142C2.21071 13.0391 2 12.5304 2 12V2C2 1.46957 2.21071 0.960859 2.58579 0.585786C2.96086 0.210714 3.46957 0 4 0H20C20.5304 0 21.0391 0.210714 21.4142 0.585786C21.7893 0.960859 22 1.46957 22 2V12C22 12.5304 21.7893 13.0391 21.4142 13.4142C21.0391 13.7893 20.5304 14 20 14H24V16H18C18 17.11 17.1 18 16 18H11C10.4696 18 9.96086 17.7893 9.58579 17.4142C9.21071 17.0391 9 16.5304 9 16H0ZM11.5 16C11.3674 16 11.2402 16.0527 11.1464 16.1464C11.0527 16.2402 11 16.3674 11 16.5C11 16.6326 11.0527 16.7598 11.1464 16.8536C11.2402 16.9473 11.3674 17 11.5 17C11.6326 17 11.7598 16.9473 11.8536 16.8536C11.9473 16.7598 12 16.6326 12 16.5C12 16.3674 11.9473 16.2402 11.8536 16.1464C11.7598 16.0527 11.6326 16 11.5 16ZM15.5 16C15.3674 16 15.2402 16.0527 15.1464 16.1464C15.0527 16.2402 15 16.3674 15 16.5C15 16.6326 15.0527 16.7598 15.1464 16.8536C15.2402 16.9473 15.3674 17 15.5 17C15.6326 17 15.7598 16.9473 15.8536 16.8536C15.9473 16.7598 16 16.6326 16 16.5C16 16.3674 15.9473 16.2402 15.8536 16.1464C15.7598 16.0527 15.6326 16 15.5 16ZM13 16V17H14V16H13ZM11 8V15H16V8H11Z" fill="#DA3D0B"/>
</svg>
